<?xml version="1.0" encoding="UTF-8"?>
<svg id="Layer_1" xmlns="http://www.w3.org/2000/svg" version="1.1" viewBox="0 0 799.1 1285.9">
  <!-- Generator: Adobe Illustrator 30.1.0, SVG Export Plug-In . SVG Version: 2.1.1 Build 136)  -->
  <defs>
    <style>
      .st0 {
        stroke: red;
        stroke-miterlimit: 11.3;
        stroke-width: .7px;
      }

      .st0, .st1 {
        fill: none;
      }

      .st2 {
        stroke: #ec1c24;
      }

      .st2, .st1, .st3 {
        stroke-miterlimit: 10;
      }

      .st2, .st3 {
        fill: #fff;
      }

      .st1 {
        stroke: #ec1e24;
      }

      .st3 {
        stroke: #ed1c24;
      }
    </style>
  </defs>
  <path class="st0" d="M192.8,62.4h8.5v-25.5h-8.5V14.2H22.7v22.7h-8.5v25.5h8.5v31.2h21.3v-8.5h25.5v8.5h25.5v-8.5h25.5v8.5h25.5v-8.5h25.5v8.5h21.3v-31.2Z"/>
  <path class="st0" d="M60.9,261.9v8.5h25.5v-8.5h25.5v8.5h25.5v-8.5h25.5v8.5h25.5v-8.5h25.5v8.5h25.5v-8.5h25.5v8.5h25.5v-8.5h25.5v8.5h25.5v-8.5h25.5v8.5h26.9v-31.2h-8.5v-25.5h8.5v-22.7H8.5v22.7h8.5v25.5h-8.5v31.2h26.9v-8.5h25.5Z"/>
  <path class="st0" d="M60.9,174v8.5h25.5v-8.5h25.5v8.5h25.5v-8.5h25.5v8.5h25.5v-8.5h25.5v8.5h25.5v-8.5h25.5v8.5h25.5v-8.5h25.5v8.5h25.5v-8.5h25.5v8.5h26.9v-31.2h-8.5v-25.5h8.5v-22.7H8.5v22.7h8.5v25.5h-8.5v31.2h26.9v-8.5h25.5Z"/>
  <path class="st0" d="M416.7,616.5h-8.5s0,25.5,0,25.5h8.5s0,23,0,23h170.6s0-23,0-23h8.5s0-25.5,0-25.5h-8.5s0-23,0-23v-8.5s-21.5,0-21.5,0v8.5s-25.5,0-25.5,0v-8.5s-25.5,0-25.5,0v8.5s-25.5,0-25.5,0v-8.5s-25.5,0-25.5,0v8.5s-25.5,0-25.5,0v-8.5s-21.5,0-21.5,0v8.5s0,23,0,23Z"/>
  <path class="st0" d="M543.1,414.8v-8.5s-25.5,0-25.5,0v8.5s-25.5,0-25.5,0v-8.5s-25.5,0-25.5,0v8.5s-25.5,0-25.5,0v-8.5s-25.5,0-25.5,0v8.5s-25.5,0-25.5,0v-8.5s-25.5,0-25.5,0v8.5s-25.5,0-25.5,0v-8.5s-25.5,0-25.5,0v8.5s-25.5,0-25.5,0v-8.5s-25.5,0-25.5,0v8.5s-25.5,0-25.5,0v-8.5s-18.7,0-18.7,0h-8.5v8.5s0,23,0,23h8.5s0,25.5,0,25.5h-8.5s0,23,0,23h8.5s369.1,0,369.1,0h8.5s0-23,0-23h-8.5s0-25.5,0-25.5h8.5s0-23,0-23v-8.5h-8.5s-18.7,0-18.7,0v8.5s-25.5,0-25.5,0Z"/>
  <path class="st0" d="M543.1,503.2v-8.5s-25.5,0-25.5,0v8.5s-25.5,0-25.5,0v-8.5s-25.5,0-25.5,0v8.5s-25.5,0-25.5,0v-8.5s-25.5,0-25.5,0v8.5s-25.5,0-25.5,0v-8.5s-25.5,0-25.5,0v8.5s-25.5,0-25.5,0v-8.5s-25.5,0-25.5,0v8.5s-25.5,0-25.5,0v-8.5s-25.5,0-25.5,0v8.5s-25.5,0-25.5,0v-8.5s-18.7,0-18.7,0h-8.5v8.5s0,23,0,23h8.5s0,25.5,0,25.5h-8.5s0,23,0,23h8.5s369.1,0,369.1,0h8.5s0-23,0-23h-8.5s0-25.5,0-25.5h8.5s0-23,0-23v-8.5h-8.5s-18.7,0-18.7,0v8.5s-25.5,0-25.5,0Z"/>
  <g>
    <path class="st0" d="M220.5,616.5h-8.5s0,25.5,0,25.5h8.5s0,23,0,23h170.6s0-23,0-23h8.5s0-25.5,0-25.5h-8.5s0-23,0-23v-8.5s-21.5,0-21.5,0v8.5s-25.5,0-25.5,0v-8.5s-25.5,0-25.5,0v8.5s-25.5,0-25.5,0v-8.5s-25.5,0-25.5,0v8.5s-25.5,0-25.5,0v-8.5s-21.5,0-21.5,0v8.5s0,23,0,23Z"/>
    <rect class="st2" x="288.9" y="613.7" width="34" height="22.7" rx="8.5" ry="8.5" transform="translate(611.7 1250.1) rotate(180)"/>
  </g>
  <g>
    <path class="st0" d="M388.6,62.4h8.5v-25.5h-8.5V14.2h-170.1v22.7h-8.5v25.5h8.5v31.2h21.3v-8.5h25.5v8.5h25.5v-8.5h25.5v8.5h25.5v-8.5h25.5v8.5h21.3v-31.2Z"/>
    <rect class="st2" x="286.6" y="42.5" width="34" height="22.7" rx="8.5" ry="8.5"/>
  </g>
  <g>
    <path class="st0" d="M565.5,14.2h-25.5v8.5h-25.5v-8.5h-25.5v8.5h-25.5v-8.5h-25.5v8.5h-21.3v18.4h-8.5v25.5h8.5v25.5h-8.5v25.5h8.5v25.5h-8.5v25.5h8.5v25.5h-8.5v25.5h8.5v25.5h-8.5v25.5h8.5v25.5h-8.5v25.5h8.5v25.5h-8.5v25.5h8.5v18.4h21.3v8.5h25.5v-8.5h25.5v8.5h25.5v-8.5h25.5v8.5h25.5v-8.5h21.3v-18.4h8.5v-25.5h-8.5v-25.5h8.5v-25.5h-8.5v-25.5h8.5v-25.5h-8.5v-25.5h8.5v-25.5h-8.5v-25.5h8.5v-25.5h-8.5v-25.5h8.5v-25.5h-8.5v-25.5h8.5v-25.5h-8.5v-18.4h-21.3v-8.5Z"/>
    <circle class="st3" cx="501.7" cy="206.9" r="50.3"/>
    <rect class="st1" x="431.9" y="140.2" width="11.3" height="5.7"/>
    <rect class="st1" x="431.9" y="182.8" width="11.3" height="5.7"/>
    <rect class="st1" x="431.9" y="225.4" width="11.3" height="5.7"/>
    <rect class="st1" x="431.9" y="268" width="11.3" height="5.7"/>
  </g>
  <g>
    <path class="st0" d="M43.7,665h25.5s0-8.5,0-8.5h25.5s0,8.5,0,8.5h25.5s0-8.5,0-8.5h25.5s0,8.5,0,8.5h25.5s0-8.5,0-8.5h21.5s0-18.7,0-18.7h8.5s0-25.5,0-25.5h-8.5s0-25.5,0-25.5h8.5s0-25.5,0-25.5h-8.5s0-25.5,0-25.5h8.5s0-25.5,0-25.5h-8.5s0-25.5,0-25.5h8.5s0-25.5,0-25.5h-8.5s0-25.5,0-25.5h8.5s0-25.5,0-25.5h-8.5s0-25.5,0-25.5h8.5s0-25.5,0-25.5h-8.5s0-25.5,0-25.5h8.5s0-25.5,0-25.5h-8.5s0-18.7,0-18.7h-21.5s0-8.5,0-8.5h-25.5s0,8.5,0,8.5h-25.5s0-8.5,0-8.5h-25.5s0,8.5,0,8.5h-25.5s0-8.5,0-8.5h-25.5s0,8.5,0,8.5h-21.5s0,18.7,0,18.7h-8.5s0,25.5,0,25.5h8.5s0,25.5,0,25.5h-8.5s0,25.5,0,25.5h8.5s0,25.5,0,25.5h-8.5s0,25.5,0,25.5h8.5s0,25.5,0,25.5h-8.5s0,25.5,0,25.5h8.5s0,25.5,0,25.5h-8.5s0,25.5,0,25.5h8.5s0,25.5,0,25.5h-8.5s0,25.5,0,25.5h8.5s0,25.5,0,25.5h-8.5s0,25.5,0,25.5h8.5s0,18.7,0,18.7h21.5s0,8.5,0,8.5Z"/>
    <circle class="st3" cx="107.7" cy="472" r="50.3"/>
    <rect class="st1" x="166.2" y="533" width="11.3" height="5.7" transform="translate(343.7 1071.6) rotate(180)"/>
    <rect class="st1" x="166.2" y="490.5" width="11.3" height="5.7" transform="translate(343.7 986.6) rotate(180)"/>
    <rect class="st1" x="166.2" y="447.9" width="11.3" height="5.7" transform="translate(343.7 901.4) rotate(180)"/>
    <rect class="st1" x="166.2" y="405.3" width="11.3" height="5.7" transform="translate(343.7 816.2) rotate(180)"/>
  </g>
  <circle class="st0" cx="234.7" cy="331.8" r="1.4"/>
  <circle class="st0" cx="238.6" cy="331.8" r="1.4"/>
  <circle class="st0" cx="234.7" cy="335.8" r="1.4"/>
  <circle class="st0" cx="238.6" cy="335.8" r="1.4"/>
  <circle class="st0" cx="234.7" cy="339.9" r="1.4"/>
  <circle class="st0" cx="238.6" cy="339.9" r="1.4"/>
  <circle class="st0" cx="234.7" cy="343.9" r="1.4"/>
  <circle class="st0" cx="238.6" cy="343.9" r="1.4"/>
  <circle class="st0" cx="256.3" cy="331.7" r="1.1"/>
  <circle class="st0" cx="256.3" cy="335.4" r="1.1"/>
  <circle class="st0" cx="256.3" cy="339.1" r="1.1"/>
  <circle class="st0" cx="256.3" cy="342.8" r="1.1"/>
  <circle class="st0" cx="260" cy="331.7" r="1.1"/>
  <circle class="st0" cx="274.6" cy="331.7" r=".7"/>
  <circle class="st0" cx="274.6" cy="334.3" r=".7"/>
  <circle class="st0" cx="274.6" cy="336.7" r=".7"/>
  <circle class="st0" cx="274.6" cy="339.3" r=".7"/>
  <circle class="st0" cx="277.4" cy="331.7" r=".7"/>
  <circle class="st0" cx="277.4" cy="334.3" r=".7"/>
  <circle class="st0" cx="277.4" cy="336.7" r=".7"/>
  <circle class="st0" cx="277.4" cy="339.3" r=".7"/>
  <circle class="st0" cx="260" cy="335.4" r="1.1"/>
  <circle class="st0" cx="260" cy="339.1" r="1.1"/>
  <circle class="st0" cx="260" cy="342.8" r="1.1"/>
</svg>