<?xml version="1.0" encoding="UTF-8"?>
<svg id="Layer_1" data-name="Layer 1" xmlns="http://www.w3.org/2000/svg" viewBox="0 0 230.28 145.87">
  <defs>
    <style>
      .cls-1 {
        fill: #231f20;
      }

      .cls-2 {
        fill: #ed1c24;
      }

      .cls-3 {
        fill: none;
        stroke: #ed1c24;
        stroke-miterlimit: 10;
        stroke-width: .25px;
      }
    </style>
  </defs>
  <path class="cls-1" d="M39.48,68.25l5.83,16.45,5.79-16.45h6.14v22.68h-4.69v-6.2l.47-10.7-6.12,16.9h-3.21l-6.11-16.88.47,10.68v6.2h-4.67v-22.68h6.11Z"/>
  <path class="cls-1" d="M79.03,90.93h-4.67l-9.1-14.92v14.92h-4.67v-22.68h4.67l9.11,14.95v-14.95h4.66v22.68Z"/>
  <path class="cls-1" d="M87.34,90.93h-4.67v-22.68h4.67v22.68Z"/>
  <path class="cls-1" d="M103.74,86.26h-8.19l-1.56,4.67h-4.97l8.44-22.68h4.33l8.49,22.68h-4.97l-1.57-4.67ZM96.81,82.47h5.67l-2.85-8.49-2.82,8.49Z"/>
  <path class="cls-1" d="M6.04,68.16v22.84h23.98v-22.84H6.04ZM25.14,86.18h-14.2v-13.24h14.2v13.24Z"/>
  <path class="cls-3" d="M39.48,98.45l5.83,16.45,5.79-16.45h6.14v22.68h-4.69v-6.2l.47-10.7-6.12,16.9h-3.21l-6.11-16.88.47,10.68v6.2h-4.67v-22.68h6.11Z"/>
  <path class="cls-3" d="M79.03,121.12h-4.67l-9.1-14.92v14.92h-4.67v-22.68h4.67l9.11,14.95v-14.95h4.66v22.68Z"/>
  <path class="cls-3" d="M87.34,121.12h-4.67v-22.68h4.67v22.68Z"/>
  <path class="cls-3" d="M103.74,116.45h-8.19l-1.56,4.67h-4.97l8.44-22.68h4.33l8.49,22.68h-4.97l-1.57-4.67ZM96.81,112.67h5.67l-2.85-8.49-2.82,8.49Z"/>
  <path class="cls-2" d="M29.77,98.6v22.34H6.29v-22.34h23.48M30.02,98.35H6.04v22.84h23.98v-22.84h0Z"/>
  <path class="cls-2" d="M24.89,103.38v12.74h-13.7v-12.74h13.7M25.14,103.13h-14.2v13.24h14.2v-13.24h0Z"/>
</svg>