<?xml version="1.0" encoding="UTF-8"?>
<svg id="Layer_1" xmlns="http://www.w3.org/2000/svg" version="1.1" viewBox="0 0 115.1 67.7">
  <!-- Generator: Adobe Illustrator 30.1.0, SVG Export Plug-In . SVG Version: 2.1.1 Build 136)  -->
  <defs>
    <style>
      .st0 {
        fill: #231f20;
      }
    </style>
  </defs>
  <path class="st0" d="M39.5,6.3l5.8,16.4,5.8-16.5h6.1v22.7h-4.7v-6.2l.5-10.7-6.1,16.9h-3.2l-6.1-16.9.5,10.7v6.2h-4.7V6.3h6.1,0Z"/>
  <path class="st0" d="M79,29h-4.7l-9.1-14.9v14.9h-4.7V6.3h4.7l9.1,14.9V6.3h4.7v22.7h0Z"/>
  <path class="st0" d="M87.3,29h-4.7V6.3h4.7v22.7h0Z"/>
  <path class="st0" d="M103.7,24.3h-8.2l-1.6,4.7h-5l8.4-22.7h4.3l8.5,22.7h-5l-1.6-4.7ZM96.8,20.5h5.7l-2.8-8.5-2.8,8.5Z"/>
  <path class="st0" d="M6,6.2v22.8h24V6.2H6ZM25.1,24.2h-14.2v-13.2h14.2v13.2Z"/>
</svg>