<?xml version="1.0" encoding="UTF-8"?>
<svg id="Layer_1" data-name="Layer 1" xmlns="http://www.w3.org/2000/svg" viewBox="0 0 595.28 841.89">
  <defs>
    <style>
      .cls-1 {
        font-family: Helvetica-Bold, Helvetica;
      }

      .cls-1, .cls-2, .cls-3, .cls-4 {
        fill: #231f20;
      }

      .cls-1, .cls-3, .cls-4 {
        font-size: 72px;
        font-weight: 700;
      }

      .cls-3 {
        font-family: Roboto-Bold, Roboto;
      }

      .cls-3, .cls-5 {
        letter-spacing: -.02em;
      }

      .cls-4 {
        font-family: PTSans-CaptionBold, 'PT Sans Caption';
      }

      .cls-6 {
        fill: #ed1c24;
      }

      .cls-7 {
        letter-spacing: -.06em;
      }

      .cls-8 {
        letter-spacing: -.05em;
      }

      .cls-9 {
        letter-spacing: -.04em;
      }

      .cls-10 {
        fill: none;
        stroke: #231f20;
        stroke-miterlimit: 10;
        stroke-width: 11px;
      }
    </style>
  </defs>
  <path class="cls-2" d="M136.55,69.26l1.15-10.44h-.43l-3.46,7.92-11.66,18.79h-3.31l-12.38-18.86-3.38-7.78h-.43l1.51,10.3v25.34h-10.08v-50.4h9.65l14.54,23.26,2.74,5.54h.36l2.38-5.69,13.9-23.11h9.58v50.4h-10.66v-25.27Z"/>
  <path class="cls-2" d="M170.18,68.25l-4.32-7.56h-.36l1.15,7.63v26.21h-10.08v-50.76h7.7l20.81,26.86,4.1,7.34h.43l-1.15-7.42v-26.42h10.08v50.76h-7.7l-20.66-26.64Z"/>
  <path class="cls-2" d="M211.86,49.89h-5.76v-5.76h22.18v5.76h-5.76v38.88h5.76v5.76h-22.18v-5.76h5.76v-38.88Z"/>
  <path class="cls-2" d="M262.91,83.81h-16.99l-4.1,10.73h-10.66l19.73-50.76h7.85l19.8,50.76h-11.3l-4.32-10.73ZM248.87,75.38h11.52l-3.89-10.51-1.73-7.99h-.36l-1.73,8.06-3.82,10.44Z"/>
  <text class="cls-4" transform="translate(331.42 94.17)"><tspan x="0" y="0">OMNI</tspan><tspan class="cls-8" x="194.11" y="0">A</tspan></text>
  <path class="cls-6" d="M65.45,155.82c-7.41,0-13.07-2.02-16.98-6.05-5.25-4.94-7.88-12.07-7.88-21.38s2.62-16.62,7.88-21.38c3.91-4.03,9.57-6.05,16.98-6.05s13.07,2.02,16.98,6.05c5.23,4.76,7.84,11.88,7.84,21.38s-2.61,16.43-7.84,21.38c-3.91,4.03-9.57,6.05-16.98,6.05ZM75.69,141.89c2.51-3.16,3.76-7.66,3.76-13.5s-1.26-10.31-3.78-13.48c-2.52-3.18-5.92-4.76-10.21-4.76s-7.71,1.58-10.27,4.75c-2.55,3.16-3.83,7.66-3.83,13.5s1.28,10.34,3.83,13.5c2.55,3.16,5.98,4.75,10.27,4.75s7.7-1.58,10.23-4.75Z"/>
  <path class="cls-2" d="M119.24,188.62c-.84-1.85-2.5-2.78-4.96-2.78-2.86,0-4.78.93-5.77,2.78-.54,1.05-.81,2.62-.81,4.71v23.06h-10.16v-38.25h9.74v5.59c1.24-1.99,2.41-3.41,3.52-4.25,1.95-1.5,4.46-2.25,7.56-2.25,2.93,0,5.3.65,7.1,1.93,1.45,1.2,2.55,2.73,3.3,4.61,1.31-2.25,2.94-3.9,4.89-4.96,2.06-1.05,4.36-1.58,6.89-1.58,1.69,0,3.35.33,4.99.98,1.64.66,3.13,1.81,4.46,3.45,1.08,1.34,1.8,2.98,2.18,4.92.23,1.29.35,3.18.35,5.66l-.07,24.15h-10.27v-24.4c0-1.45-.23-2.65-.7-3.59-.89-1.78-2.53-2.67-4.92-2.67-2.77,0-4.68,1.15-5.73,3.45-.54,1.22-.81,2.68-.81,4.39v22.82h-10.09v-22.82c0-2.27-.23-3.93-.7-4.96Z"/>
  <path class="cls-2" d="M179.78,185.5c-3.4,0-5.73,1.44-7,4.32-.66,1.52-.98,3.47-.98,5.84v20.74h-9.98v-38.25h9.67v5.59c1.29-1.97,2.51-3.39,3.66-4.25,2.06-1.55,4.68-2.32,7.84-2.32,3.96,0,7.2,1.04,9.72,3.11,2.52,2.07,3.78,5.51,3.78,10.32v25.8h-10.27v-23.31c0-2.02-.27-3.56-.81-4.64-.98-1.97-2.86-2.95-5.62-2.95Z"/>
  <path class="cls-2" d="M216.03,164.26v9.25h-10.16v-9.25h10.16ZM216.03,178.08v38.32h-10.16v-38.32h10.16Z"/>
  <path class="cls-2" d="M227.17,182.23c2.65-3.38,7.19-5.06,13.64-5.06,4.2,0,7.92.83,11.18,2.5,3.26,1.66,4.89,4.8,4.89,9.42v17.58c0,1.22.02,2.7.07,4.43.07,1.31.27,2.2.6,2.67.33.47.82.86,1.48,1.16v1.48h-10.9c-.3-.77-.52-1.5-.63-2.18-.12-.68-.21-1.45-.28-2.32-1.38,1.5-2.98,2.78-4.78,3.83-2.16,1.24-4.59,1.86-7.31,1.86-3.47,0-6.33-.99-8.6-2.97-2.26-1.98-3.39-4.79-3.39-8.42,0-4.71,1.82-8.12,5.45-10.23,1.99-1.15,4.92-1.97,8.79-2.46l3.41-.42c1.85-.23,3.18-.53,3.97-.88,1.43-.61,2.14-1.56,2.14-2.85,0-1.57-.54-2.65-1.63-3.25s-2.69-.9-4.8-.9c-2.37,0-4.04.59-5.03,1.76-.7.87-1.17,2.04-1.41,3.52h-9.67c.21-3.35,1.15-6.1,2.81-8.26ZM234.63,209.16c.94.77,2.09,1.16,3.45,1.16,2.16,0,4.14-.63,5.96-1.9,1.82-1.27,2.76-3.57,2.83-6.93v-3.73c-.63.4-1.27.72-1.92.97-.65.25-1.53.47-2.65.69l-2.25.42c-2.11.38-3.62.83-4.54,1.37-1.55.91-2.32,2.33-2.32,4.25,0,1.71.48,2.94,1.44,3.69Z"/>
  <text class="cls-1" transform="translate(343.93 222.23)"><tspan x="0" y="0">Omnia</tspan></text>
  <text class="cls-1" transform="translate(35.69 316.47)"><tspan x="0" y="0">OMNI</tspan><tspan class="cls-9" x="187.98" y="0">A</tspan></text>
  <text class="cls-1" transform="translate(90 407.39)"><tspan class="cls-5" x="0" y="0">MNI</tspan><tspan class="cls-7" x="127.01" y="0">A</tspan></text>
  <text class="cls-3" transform="translate(90 500.58)"><tspan x="0" y="0">MNIA</tspan></text>
  <path class="cls-2" d="M42.11,95.54h11.25c-.39-1.58-.93-3.58-1.48-7.92-.27-2.13-.65-5.09-.65-8.92,0-8.06,1.06-13.82,3.17-17.27,2.11-3.45,5.06-5.18,8.86-5.18,2.06,0,3.85.54,5.36,1.63,1.51,1.09,2.75,2.62,3.71,4.61.96,1.98,1.68,4.35,2.16,7.1.72,4.13.74,7.5.72,9.12-.11,9.38-.3,12.83-1.31,16.84h10.45c.2-.68.41-1.35.58-2.07,1.06-4.35,1.58-9.28,1.58-14.78,0-5.18-.48-9.92-1.44-14.2-.96-4.29-2.41-7.96-4.36-11.03-1.94-3.07-4.37-5.45-7.27-7.15-2.9-1.69-6.3-2.54-10.19-2.54-3.6,0-6.84.78-9.72,2.35-2.88,1.57-5.33,3.84-7.34,6.81-2.02,2.97-3.56,6.63-4.64,10.99-1.08,4.35-1.62,9.27-1.62,14.78,0,5.18.49,9.91,1.48,14.2.21.91.45,1.79.71,2.64Z"/>
  <rect class="cls-10" x="52.36" y="168.66" width="28.09" height="44.19"/>
  <rect class="cls-10" x="55.14" y="361.03" width="28.09" height="40.65"/>
  <rect class="cls-10" x="38.58" y="454.89" width="42.86" height="40.16"/>
</svg>